<?xml version="1.0" encoding="iso-8859-1"?>
<!DOCTYPE svg PUBLIC "-//W3C//DTD SVG 1.0//EN" "http://www.w3.org/TR/2001/REC-SVG-20010904/DTD/svg10.dtd">
<!-- Creator: CorelDRAW -->
<svg xmlns="http://www.w3.org/2000/svg" xmlns:odm="http://product.corel.com/CGS/11/cddns/" xml:space="preserve" width="8in" height="8in" shape-rendering="geometricPrecision" text-rendering="geometricPrecision" image-rendering="optimizeQuality" fill-rule="evenodd"
     viewBox="0 0 8000 8000">
 <g id="Layer 1">
  <g>
   <path fill="#FFFF00" stroke="#000000" stroke-width="7" d="M250 3750l3500 -3500c125,-125 375,-125 500,0l3500 3500c125,125 125,375 0,500l-3500 3500c-125,125 -375,125 -500,0l-3500 -3500c-125,-125 -125,-375 0,-500z"/>
   <path fill="#FFFF00" stroke="#000000" stroke-width="28" d="M7500 4250c188,-187 188,-313 0,-500l-3250 -3250c-187,-188 -313,-188 -500,0l-3250 3250c-188,187 -188,313 0,500l3250 3250c187,188 313,188 500,0l3250 -3250z"/>
  </g>
  <g>
   <path fill="#000000" stroke="#FFFF00" stroke-width="28" d="M5250 2125l0 1250 -125 0c0,250 0,625 -375,625l0 375c125,0 125,0 125,125l-1000 0c0,-125 0,-125 125,-125l0 -375 -125 0c-375,0 -375,-375 -375,-625l1125 0 0 -1250 -62 0 0 -125 750 0 0 125 -63 0z"/>
   <g>
    <path fill="#000000" stroke="#FFFF00" stroke-width="28" d="M3812 2875l-875 0 0 125 875 0 0 -125z"/>
    <path fill="#000000" stroke="#FFFF00" stroke-width="3" d="M3062 2875l-125 0 -250 -750 125 0 250 750z"/>
   </g>
   <g>
    <path fill="#000000" stroke="#FFFF00" stroke-width="28" d="M3858 2205l-671 670 250 0 444 -443 56 568 -625 0c-125,0 -125,250 -125,375l0 875 -125 0c-125,0 -125,125 -125,250l500 0 0 -250 0 -875 1126 0 0 -375c0,-375 -125,-875 -375,-1125l-376 -125 46 455z"/>
    <circle fill="#000000" stroke="#FFFF00" stroke-width="28" cx="4000" cy="1687" r="313"/>
   </g>
  </g>
  <path fill="#000000" d="M2247 4898l140 0 50 266 74 -266 139 0 74 266 51 -266 139 0 -105 477 -145 0 -83 -300 -84 300 -144 0 -106 -477z"/>
  <path fill="#000000" d="M2968 4898l148 0 0 477 -148 0 0 -477z"/>
  <path fill="#000000" d="M3223 4898l147 0 0 180 155 -180 196 0 -174 180 181 297 -181 0 -101 -196 -76 79 0 117 -147 0 0 -477z"/>
  <path fill="#000000" d="M3783 4898l148 0 0 477 -148 0 0 -477z"/>
  <path fill="#000000" d="M4011 5217l140 -9c3,23 10,40 19,52 15,20 37,29 65,29 21,0 37,-5 49,-14 11,-10 17,-22 17,-35 0,-12 -6,-23 -16,-33 -11,-10 -36,-19 -76,-28 -65,-14 -111,-33 -138,-58 -28,-24 -42,-54 -42,-92 0,-24 7,-47 21,-69 15,-22 36,-39 64,-52 29,-12 68,-18 118,-18 61,0 107,11 139,34 32,22 51,58 57,108l-139 8c-3,-21 -11,-37 -23,-47 -12,-10 -28,-14 -49,-14 -17,0 -30,3 -39,10 -8,8 -13,17 -13,27 0,8 4,14 11,20 7,7 24,13 50,18 64,14 110,28 138,42 28,14 48,32 61,53 13,21 19,45 19,71 0,30 -8,59 -25,84 -17,26 -41,46 -71,59 -31,13 -69,20 -115,20 -81,0 -138,-15 -169,-47 -31,-31 -49,-71 -53,-119z"/>
  <path fill="#000000" d="M4722 5137c0,-78 22,-139 65,-182 44,-44 104,-65 181,-65 80,0 141,21 184,64 43,42 65,102 65,179 0,56 -10,101 -29,137 -18,36 -46,63 -81,83 -36,20 -80,30 -133,30 -53,0 -98,-8 -133,-26 -36,-17 -64,-44 -86,-81 -22,-37 -33,-84 -33,-139zm148 0c0,49 8,83 26,104 18,21 43,32 73,32 32,0 57,-11 74,-31 17,-21 26,-58 26,-111 0,-45 -9,-78 -27,-99 -18,-20 -43,-31 -74,-31 -30,0 -53,11 -71,32 -18,21 -27,56 -27,104z"/>
  <path fill="#000000" d="M5297 4898l138 0 179 264 0 -264 139 0 0 477 -139 0 -178 -262 0 262 -139 0 0 -477z"/>
  <path fill="#000000" d="M2700 5838l448 0 0 118 -151 0 0 359 -147 0 0 -359 -150 0 0 -118z"/>
  <path fill="#000000" d="M3173 6077c0,-78 22,-139 65,-182 44,-44 104,-65 182,-65 79,0 140,21 183,64 43,42 65,102 65,179 0,56 -10,101 -29,137 -18,36 -45,64 -81,83 -35,20 -80,30 -133,30 -53,0 -98,-8 -133,-25 -35,-18 -64,-45 -86,-82 -22,-37 -33,-83 -33,-139zm148 0c0,49 9,83 26,104 18,21 43,32 74,32 31,0 56,-10 73,-31 17,-21 26,-58 26,-111 0,-45 -9,-78 -27,-99 -18,-20 -43,-31 -74,-31 -29,0 -53,11 -71,32 -18,21 -27,56 -27,104z"/>
  <path fill="#000000" d="M3753 5838l148 0 0 477 -148 0 0 -477z"/>
  <path fill="#000000" d="M4006 5838l148 0 0 360 230 0 0 117 -378 0 0 -477z"/>
  <path fill="#000000" d="M4451 5838l395 0 0 102 -247 0 0 76 229 0 0 97 -229 0 0 94 254 0 0 108 -402 0 0 -477z"/>
  <path fill="#000000" d="M4899 5838l448 0 0 118 -150 0 0 359 -148 0 0 -359 -150 0 0 -118z"/>
 </g>
</svg>
